<svg xmlns="http://www.w3.org/2000/svg" viewBox="0 0 512 512">
  <path fill="#e1306c" d="M349.33 69.33H162.67A93.34 93.34 0 0 0 69.33 162.67v186.66A93.34 93.34 0 0 0 162.67 442.67h186.66A93.34 93.34 0 0 0 442.67 349.33V162.67A93.34 93.34 0 0 0 349.33 69.33Zm61.34 280a61.39 61.39 0 0 1-61.34 61.34H162.67a61.39 61.39 0 0 1-61.34-61.34V162.67a61.39 61.39 0 0 1 61.34-61.34h186.66a61.39 61.39 0 0 1 61.34 61.34Z"/>
  <path fill="#e1306c" d="M377.33 162.67a28.44 28.44 0 1 1 28.44-28.44 28.44 28.44 0 0 1-28.44 28.44ZM256 162.67A93.33 93.33 0 1 0 349.33 256 93.33 93.33 0 0 0 256 162.67Zm0 154.67A61.33 61.33 0 1 1 317.33 256 61.33 61.33 0 0 1 256 317.33Z"/>
</svg>
